<svg xmlns="http://www.w3.org/2000/svg" viewBox="0 0 620 190" role="img" aria-labelledby="title">
  <title id="title">Bridge Finance Network</title>
  <g fill="#06234a">
    <path d="M28 24h78v51c0 45-32 79-78 89V42c0-10 8-18 18-18z"/>
    <path d="M138 24h100c10 0 18 8 18 18v78h-66c-36 0-61-10-77-30-15-18-23-40-24-66z"/>
    <path d="M28 124h70c54 0 88 32 96 70H46c-10 0-18-8-18-18z"/>
    <path d="M190 124h66v52c0 10-8 18-18 18h-92v-38c0-19 17-32 44-32z"/>
  </g>
  <g fill="#000000" font-family="Arial Black, Arial, Helvetica, sans-serif" font-weight="900">
    <text x="288" y="71" font-size="52">Bridge</text>
    <text x="288" y="124" font-size="52">Finance</text>
    <text x="288" y="177" font-size="52">Network</text>
  </g>
</svg>
